<mxfile host="app.diagrams.net" modified="2022-12-08T06:31:05.332Z" agent="5.0 (Macintosh; Intel Mac OS X 10_15_7) AppleWebKit/537.36 (KHTML, like Gecko) Chrome/108.0.0.0 Safari/537.36" etag="MRCClSDWhdE_WywgS5zO" version="20.6.0" type="github">
  <diagram id="C5RBs43oDa-KdzZeNtuy" name="Page-1">
    <mxGraphModel dx="1584" dy="823" grid="1" gridSize="10" guides="1" tooltips="1" connect="1" arrows="1" fold="1" page="1" pageScale="1" pageWidth="827" pageHeight="1169" math="0" shadow="0">
      <root>
        <mxCell id="WIyWlLk6GJQsqaUBKTNV-0" />
        <mxCell id="WIyWlLk6GJQsqaUBKTNV-1" parent="WIyWlLk6GJQsqaUBKTNV-0" />
        <mxCell id="4eXq34UIz9qXlO9hQ2Uc-115" value="" style="rounded=0;whiteSpace=wrap;html=1;dashed=1;" vertex="1" parent="WIyWlLk6GJQsqaUBKTNV-1">
          <mxGeometry x="105" y="49" width="590" height="1120" as="geometry" />
        </mxCell>
        <mxCell id="4eXq34UIz9qXlO9hQ2Uc-2" style="edgeStyle=orthogonalEdgeStyle;rounded=0;orthogonalLoop=1;jettySize=auto;html=1;exitX=0.5;exitY=1;exitDx=0;exitDy=0;" edge="1" parent="WIyWlLk6GJQsqaUBKTNV-1" source="WIyWlLk6GJQsqaUBKTNV-3" target="4eXq34UIz9qXlO9hQ2Uc-1">
          <mxGeometry relative="1" as="geometry" />
        </mxCell>
        <mxCell id="WIyWlLk6GJQsqaUBKTNV-3" value="开始" style="rounded=1;whiteSpace=wrap;html=1;fontSize=12;glass=0;strokeWidth=1;shadow=0;" parent="WIyWlLk6GJQsqaUBKTNV-1" vertex="1">
          <mxGeometry x="160" y="80" width="120" height="40" as="geometry" />
        </mxCell>
        <mxCell id="4eXq34UIz9qXlO9hQ2Uc-5" style="edgeStyle=orthogonalEdgeStyle;rounded=0;orthogonalLoop=1;jettySize=auto;html=1;exitX=0.5;exitY=1;exitDx=0;exitDy=0;" edge="1" parent="WIyWlLk6GJQsqaUBKTNV-1" source="4eXq34UIz9qXlO9hQ2Uc-1" target="4eXq34UIz9qXlO9hQ2Uc-3">
          <mxGeometry relative="1" as="geometry" />
        </mxCell>
        <mxCell id="4eXq34UIz9qXlO9hQ2Uc-1" value="服务端下发家具地图" style="rounded=1;whiteSpace=wrap;html=1;fontSize=12;glass=0;strokeWidth=1;shadow=0;" vertex="1" parent="WIyWlLk6GJQsqaUBKTNV-1">
          <mxGeometry x="160" y="168" width="120" height="40" as="geometry" />
        </mxCell>
        <mxCell id="4eXq34UIz9qXlO9hQ2Uc-14" style="edgeStyle=orthogonalEdgeStyle;rounded=0;orthogonalLoop=1;jettySize=auto;html=1;exitX=0.5;exitY=1;exitDx=0;exitDy=0;" edge="1" parent="WIyWlLk6GJQsqaUBKTNV-1" source="4eXq34UIz9qXlO9hQ2Uc-3" target="4eXq34UIz9qXlO9hQ2Uc-6">
          <mxGeometry relative="1" as="geometry" />
        </mxCell>
        <mxCell id="4eXq34UIz9qXlO9hQ2Uc-3" value="获取中心大小角度" style="rounded=1;whiteSpace=wrap;html=1;fontSize=12;glass=0;strokeWidth=1;shadow=0;" vertex="1" parent="WIyWlLk6GJQsqaUBKTNV-1">
          <mxGeometry x="160" y="248" width="120" height="40" as="geometry" />
        </mxCell>
        <mxCell id="4eXq34UIz9qXlO9hQ2Uc-16" style="edgeStyle=orthogonalEdgeStyle;rounded=0;orthogonalLoop=1;jettySize=auto;html=1;exitX=0.5;exitY=1;exitDx=0;exitDy=0;" edge="1" parent="WIyWlLk6GJQsqaUBKTNV-1" source="4eXq34UIz9qXlO9hQ2Uc-6">
          <mxGeometry relative="1" as="geometry">
            <mxPoint x="220" y="390" as="targetPoint" />
          </mxGeometry>
        </mxCell>
        <mxCell id="4eXq34UIz9qXlO9hQ2Uc-91" style="edgeStyle=orthogonalEdgeStyle;rounded=0;orthogonalLoop=1;jettySize=auto;html=1;exitX=0.5;exitY=1;exitDx=0;exitDy=0;entryX=0.5;entryY=0;entryDx=0;entryDy=0;" edge="1" parent="WIyWlLk6GJQsqaUBKTNV-1" source="4eXq34UIz9qXlO9hQ2Uc-6" target="4eXq34UIz9qXlO9hQ2Uc-17">
          <mxGeometry relative="1" as="geometry" />
        </mxCell>
        <mxCell id="4eXq34UIz9qXlO9hQ2Uc-104" value="是" style="edgeLabel;html=1;align=center;verticalAlign=middle;resizable=0;points=[];" vertex="1" connectable="0" parent="4eXq34UIz9qXlO9hQ2Uc-91">
          <mxGeometry x="-0.24" y="1" relative="1" as="geometry">
            <mxPoint as="offset" />
          </mxGeometry>
        </mxCell>
        <mxCell id="4eXq34UIz9qXlO9hQ2Uc-94" style="edgeStyle=orthogonalEdgeStyle;rounded=0;orthogonalLoop=1;jettySize=auto;html=1;exitX=1;exitY=0.5;exitDx=0;exitDy=0;entryX=0.5;entryY=0;entryDx=0;entryDy=0;" edge="1" parent="WIyWlLk6GJQsqaUBKTNV-1" source="4eXq34UIz9qXlO9hQ2Uc-6" target="4eXq34UIz9qXlO9hQ2Uc-21">
          <mxGeometry relative="1" as="geometry">
            <Array as="points">
              <mxPoint x="290" y="360" />
              <mxPoint x="290" y="510" />
              <mxPoint x="220" y="510" />
            </Array>
          </mxGeometry>
        </mxCell>
        <mxCell id="4eXq34UIz9qXlO9hQ2Uc-6" value="小于家具最小限制" style="rhombus;whiteSpace=wrap;html=1;shadow=0;fontFamily=Helvetica;fontSize=12;align=center;strokeWidth=1;spacing=6;spacingTop=-4;" vertex="1" parent="WIyWlLk6GJQsqaUBKTNV-1">
          <mxGeometry x="170" y="320" width="100" height="80" as="geometry" />
        </mxCell>
        <mxCell id="4eXq34UIz9qXlO9hQ2Uc-95" style="edgeStyle=orthogonalEdgeStyle;rounded=0;orthogonalLoop=1;jettySize=auto;html=1;exitX=0.5;exitY=1;exitDx=0;exitDy=0;entryX=0.5;entryY=0;entryDx=0;entryDy=0;" edge="1" parent="WIyWlLk6GJQsqaUBKTNV-1" source="4eXq34UIz9qXlO9hQ2Uc-17" target="4eXq34UIz9qXlO9hQ2Uc-21">
          <mxGeometry relative="1" as="geometry" />
        </mxCell>
        <mxCell id="4eXq34UIz9qXlO9hQ2Uc-17" value="修改为最小尺寸" style="rounded=1;whiteSpace=wrap;html=1;fontSize=12;glass=0;strokeWidth=1;shadow=0;" vertex="1" parent="WIyWlLk6GJQsqaUBKTNV-1">
          <mxGeometry x="160" y="450" width="120" height="40" as="geometry" />
        </mxCell>
        <mxCell id="4eXq34UIz9qXlO9hQ2Uc-96" style="edgeStyle=orthogonalEdgeStyle;rounded=0;orthogonalLoop=1;jettySize=auto;html=1;exitX=0.5;exitY=1;exitDx=0;exitDy=0;" edge="1" parent="WIyWlLk6GJQsqaUBKTNV-1" source="4eXq34UIz9qXlO9hQ2Uc-21" target="4eXq34UIz9qXlO9hQ2Uc-23">
          <mxGeometry relative="1" as="geometry" />
        </mxCell>
        <mxCell id="4eXq34UIz9qXlO9hQ2Uc-106" value="是" style="edgeLabel;html=1;align=center;verticalAlign=middle;resizable=0;points=[];" vertex="1" connectable="0" parent="4eXq34UIz9qXlO9hQ2Uc-96">
          <mxGeometry x="-0.3043" y="2" relative="1" as="geometry">
            <mxPoint as="offset" />
          </mxGeometry>
        </mxCell>
        <mxCell id="4eXq34UIz9qXlO9hQ2Uc-107" style="edgeStyle=orthogonalEdgeStyle;rounded=0;orthogonalLoop=1;jettySize=auto;html=1;exitX=1;exitY=0.5;exitDx=0;exitDy=0;entryX=0.5;entryY=0;entryDx=0;entryDy=0;" edge="1" parent="WIyWlLk6GJQsqaUBKTNV-1" source="4eXq34UIz9qXlO9hQ2Uc-21" target="4eXq34UIz9qXlO9hQ2Uc-28">
          <mxGeometry relative="1" as="geometry">
            <Array as="points">
              <mxPoint x="290" y="570" />
              <mxPoint x="290" y="710" />
              <mxPoint x="220" y="710" />
            </Array>
          </mxGeometry>
        </mxCell>
        <mxCell id="4eXq34UIz9qXlO9hQ2Uc-21" value="大于家具最大限制" style="rhombus;whiteSpace=wrap;html=1;shadow=0;fontFamily=Helvetica;fontSize=12;align=center;strokeWidth=1;spacing=6;spacingTop=-4;" vertex="1" parent="WIyWlLk6GJQsqaUBKTNV-1">
          <mxGeometry x="170" y="530" width="100" height="80" as="geometry" />
        </mxCell>
        <mxCell id="4eXq34UIz9qXlO9hQ2Uc-108" style="edgeStyle=orthogonalEdgeStyle;rounded=0;orthogonalLoop=1;jettySize=auto;html=1;exitX=0.5;exitY=1;exitDx=0;exitDy=0;entryX=0.5;entryY=0;entryDx=0;entryDy=0;" edge="1" parent="WIyWlLk6GJQsqaUBKTNV-1" source="4eXq34UIz9qXlO9hQ2Uc-23" target="4eXq34UIz9qXlO9hQ2Uc-28">
          <mxGeometry relative="1" as="geometry" />
        </mxCell>
        <mxCell id="4eXq34UIz9qXlO9hQ2Uc-23" value="修改为最大尺寸" style="rounded=1;whiteSpace=wrap;html=1;fontSize=12;glass=0;strokeWidth=1;shadow=0;" vertex="1" parent="WIyWlLk6GJQsqaUBKTNV-1">
          <mxGeometry x="160" y="656" width="120" height="40" as="geometry" />
        </mxCell>
        <mxCell id="4eXq34UIz9qXlO9hQ2Uc-31" style="edgeStyle=orthogonalEdgeStyle;rounded=0;orthogonalLoop=1;jettySize=auto;html=1;exitX=0.5;exitY=1;exitDx=0;exitDy=0;" edge="1" parent="WIyWlLk6GJQsqaUBKTNV-1" source="4eXq34UIz9qXlO9hQ2Uc-28" target="4eXq34UIz9qXlO9hQ2Uc-30">
          <mxGeometry relative="1" as="geometry" />
        </mxCell>
        <mxCell id="4eXq34UIz9qXlO9hQ2Uc-28" value="获取家具边中点、顶点坐标" style="rounded=1;whiteSpace=wrap;html=1;fontSize=12;glass=0;strokeWidth=1;shadow=0;" vertex="1" parent="WIyWlLk6GJQsqaUBKTNV-1">
          <mxGeometry x="160" y="736" width="120" height="40" as="geometry" />
        </mxCell>
        <mxCell id="4eXq34UIz9qXlO9hQ2Uc-34" style="edgeStyle=orthogonalEdgeStyle;rounded=0;orthogonalLoop=1;jettySize=auto;html=1;exitX=0.5;exitY=1;exitDx=0;exitDy=0;" edge="1" parent="WIyWlLk6GJQsqaUBKTNV-1" source="4eXq34UIz9qXlO9hQ2Uc-30" target="4eXq34UIz9qXlO9hQ2Uc-33">
          <mxGeometry relative="1" as="geometry" />
        </mxCell>
        <mxCell id="4eXq34UIz9qXlO9hQ2Uc-30" value="计算所有点与墙距离" style="rounded=1;whiteSpace=wrap;html=1;fontSize=12;glass=0;strokeWidth=1;shadow=0;" vertex="1" parent="WIyWlLk6GJQsqaUBKTNV-1">
          <mxGeometry x="160" y="810" width="120" height="40" as="geometry" />
        </mxCell>
        <mxCell id="4eXq34UIz9qXlO9hQ2Uc-112" style="edgeStyle=orthogonalEdgeStyle;rounded=0;orthogonalLoop=1;jettySize=auto;html=1;exitX=1;exitY=0.5;exitDx=0;exitDy=0;entryX=0.5;entryY=0;entryDx=0;entryDy=0;" edge="1" parent="WIyWlLk6GJQsqaUBKTNV-1" source="4eXq34UIz9qXlO9hQ2Uc-33" target="4eXq34UIz9qXlO9hQ2Uc-38">
          <mxGeometry relative="1" as="geometry">
            <Array as="points">
              <mxPoint x="320" y="930" />
              <mxPoint x="320" y="320" />
              <mxPoint x="490" y="320" />
            </Array>
          </mxGeometry>
        </mxCell>
        <mxCell id="4eXq34UIz9qXlO9hQ2Uc-113" value="是" style="edgeLabel;html=1;align=center;verticalAlign=middle;resizable=0;points=[];" vertex="1" connectable="0" parent="4eXq34UIz9qXlO9hQ2Uc-112">
          <mxGeometry x="-0.9388" y="3" relative="1" as="geometry">
            <mxPoint as="offset" />
          </mxGeometry>
        </mxCell>
        <mxCell id="4eXq34UIz9qXlO9hQ2Uc-114" style="edgeStyle=orthogonalEdgeStyle;rounded=0;orthogonalLoop=1;jettySize=auto;html=1;exitX=0.5;exitY=1;exitDx=0;exitDy=0;" edge="1" parent="WIyWlLk6GJQsqaUBKTNV-1" source="4eXq34UIz9qXlO9hQ2Uc-33" target="4eXq34UIz9qXlO9hQ2Uc-67">
          <mxGeometry relative="1" as="geometry">
            <Array as="points">
              <mxPoint x="220" y="1020" />
              <mxPoint x="360" y="1020" />
            </Array>
          </mxGeometry>
        </mxCell>
        <mxCell id="4eXq34UIz9qXlO9hQ2Uc-33" value="距离值有正有负" style="rhombus;whiteSpace=wrap;html=1;shadow=0;fontFamily=Helvetica;fontSize=12;align=center;strokeWidth=1;spacing=6;spacingTop=-4;" vertex="1" parent="WIyWlLk6GJQsqaUBKTNV-1">
          <mxGeometry x="170" y="890" width="100" height="80" as="geometry" />
        </mxCell>
        <mxCell id="4eXq34UIz9qXlO9hQ2Uc-42" style="edgeStyle=orthogonalEdgeStyle;rounded=0;orthogonalLoop=1;jettySize=auto;html=1;exitX=0.5;exitY=1;exitDx=0;exitDy=0;" edge="1" parent="WIyWlLk6GJQsqaUBKTNV-1" source="4eXq34UIz9qXlO9hQ2Uc-38" target="4eXq34UIz9qXlO9hQ2Uc-39">
          <mxGeometry relative="1" as="geometry" />
        </mxCell>
        <mxCell id="4eXq34UIz9qXlO9hQ2Uc-38" value="查找最大负值距离点" style="rounded=1;whiteSpace=wrap;html=1;fontSize=12;glass=0;strokeWidth=1;shadow=0;" vertex="1" parent="WIyWlLk6GJQsqaUBKTNV-1">
          <mxGeometry x="430" y="340" width="120" height="40" as="geometry" />
        </mxCell>
        <mxCell id="4eXq34UIz9qXlO9hQ2Uc-73" style="edgeStyle=orthogonalEdgeStyle;rounded=0;orthogonalLoop=1;jettySize=auto;html=1;exitX=0.5;exitY=1;exitDx=0;exitDy=0;entryX=0.5;entryY=0;entryDx=0;entryDy=0;" edge="1" parent="WIyWlLk6GJQsqaUBKTNV-1" source="4eXq34UIz9qXlO9hQ2Uc-39" target="4eXq34UIz9qXlO9hQ2Uc-45">
          <mxGeometry relative="1" as="geometry" />
        </mxCell>
        <mxCell id="4eXq34UIz9qXlO9hQ2Uc-39" value="计算最大负距离点与家具中点直线方程" style="rounded=1;whiteSpace=wrap;html=1;fontSize=12;glass=0;strokeWidth=1;shadow=0;" vertex="1" parent="WIyWlLk6GJQsqaUBKTNV-1">
          <mxGeometry x="430" y="450" width="120" height="40" as="geometry" />
        </mxCell>
        <mxCell id="4eXq34UIz9qXlO9hQ2Uc-51" style="edgeStyle=orthogonalEdgeStyle;rounded=0;orthogonalLoop=1;jettySize=auto;html=1;exitX=1;exitY=0.5;exitDx=0;exitDy=0;" edge="1" parent="WIyWlLk6GJQsqaUBKTNV-1" source="4eXq34UIz9qXlO9hQ2Uc-45" target="4eXq34UIz9qXlO9hQ2Uc-50">
          <mxGeometry relative="1" as="geometry" />
        </mxCell>
        <mxCell id="4eXq34UIz9qXlO9hQ2Uc-54" value="是" style="edgeLabel;html=1;align=center;verticalAlign=middle;resizable=0;points=[];" vertex="1" connectable="0" parent="4eXq34UIz9qXlO9hQ2Uc-51">
          <mxGeometry x="-0.4" y="1" relative="1" as="geometry">
            <mxPoint x="6" y="35" as="offset" />
          </mxGeometry>
        </mxCell>
        <mxCell id="4eXq34UIz9qXlO9hQ2Uc-74" style="edgeStyle=orthogonalEdgeStyle;rounded=0;orthogonalLoop=1;jettySize=auto;html=1;exitX=0;exitY=0.5;exitDx=0;exitDy=0;" edge="1" parent="WIyWlLk6GJQsqaUBKTNV-1" source="4eXq34UIz9qXlO9hQ2Uc-45" target="4eXq34UIz9qXlO9hQ2Uc-52">
          <mxGeometry relative="1" as="geometry" />
        </mxCell>
        <mxCell id="4eXq34UIz9qXlO9hQ2Uc-78" value="否" style="edgeLabel;html=1;align=center;verticalAlign=middle;resizable=0;points=[];" vertex="1" connectable="0" parent="4eXq34UIz9qXlO9hQ2Uc-74">
          <mxGeometry x="-0.6731" relative="1" as="geometry">
            <mxPoint x="-13" y="34" as="offset" />
          </mxGeometry>
        </mxCell>
        <mxCell id="4eXq34UIz9qXlO9hQ2Uc-45" value="最大负值点坐标&lt;br&gt;x 大于中点 x" style="rhombus;whiteSpace=wrap;html=1;shadow=0;fontFamily=Helvetica;fontSize=12;align=center;strokeWidth=1;spacing=6;spacingTop=-4;" vertex="1" parent="WIyWlLk6GJQsqaUBKTNV-1">
          <mxGeometry x="440" y="530" width="100" height="80" as="geometry" />
        </mxCell>
        <mxCell id="4eXq34UIz9qXlO9hQ2Uc-60" style="edgeStyle=orthogonalEdgeStyle;rounded=0;orthogonalLoop=1;jettySize=auto;html=1;exitX=1;exitY=0.5;exitDx=0;exitDy=0;" edge="1" parent="WIyWlLk6GJQsqaUBKTNV-1" source="4eXq34UIz9qXlO9hQ2Uc-46" target="4eXq34UIz9qXlO9hQ2Uc-56">
          <mxGeometry relative="1" as="geometry" />
        </mxCell>
        <mxCell id="4eXq34UIz9qXlO9hQ2Uc-71" value="是" style="edgeLabel;html=1;align=center;verticalAlign=middle;resizable=0;points=[];" vertex="1" connectable="0" parent="4eXq34UIz9qXlO9hQ2Uc-60">
          <mxGeometry x="-0.15" relative="1" as="geometry">
            <mxPoint y="13" as="offset" />
          </mxGeometry>
        </mxCell>
        <mxCell id="4eXq34UIz9qXlO9hQ2Uc-79" style="edgeStyle=orthogonalEdgeStyle;rounded=0;orthogonalLoop=1;jettySize=auto;html=1;exitX=0;exitY=0.5;exitDx=0;exitDy=0;" edge="1" parent="WIyWlLk6GJQsqaUBKTNV-1" source="4eXq34UIz9qXlO9hQ2Uc-46" target="4eXq34UIz9qXlO9hQ2Uc-57">
          <mxGeometry relative="1" as="geometry" />
        </mxCell>
        <mxCell id="4eXq34UIz9qXlO9hQ2Uc-81" value="否" style="edgeLabel;html=1;align=center;verticalAlign=middle;resizable=0;points=[];" vertex="1" connectable="0" parent="4eXq34UIz9qXlO9hQ2Uc-79">
          <mxGeometry x="0.0545" y="1" relative="1" as="geometry">
            <mxPoint as="offset" />
          </mxGeometry>
        </mxCell>
        <mxCell id="4eXq34UIz9qXlO9hQ2Uc-46" value="最大负值点坐标&lt;br&gt;y 大于中点 y" style="rhombus;whiteSpace=wrap;html=1;shadow=0;fontFamily=Helvetica;fontSize=12;align=center;strokeWidth=1;spacing=6;spacingTop=-4;" vertex="1" parent="WIyWlLk6GJQsqaUBKTNV-1">
          <mxGeometry x="440" y="716" width="100" height="80" as="geometry" />
        </mxCell>
        <mxCell id="4eXq34UIz9qXlO9hQ2Uc-76" style="edgeStyle=orthogonalEdgeStyle;rounded=0;orthogonalLoop=1;jettySize=auto;html=1;exitX=0.5;exitY=1;exitDx=0;exitDy=0;entryX=0.5;entryY=0;entryDx=0;entryDy=0;" edge="1" parent="WIyWlLk6GJQsqaUBKTNV-1" source="4eXq34UIz9qXlO9hQ2Uc-50" target="4eXq34UIz9qXlO9hQ2Uc-46">
          <mxGeometry relative="1" as="geometry" />
        </mxCell>
        <mxCell id="4eXq34UIz9qXlO9hQ2Uc-50" value="中点 x 根据直线方程做减法" style="rounded=1;whiteSpace=wrap;html=1;fontSize=12;glass=0;strokeWidth=1;shadow=0;" vertex="1" parent="WIyWlLk6GJQsqaUBKTNV-1">
          <mxGeometry x="520" y="630" width="120" height="40" as="geometry" />
        </mxCell>
        <mxCell id="4eXq34UIz9qXlO9hQ2Uc-77" style="edgeStyle=orthogonalEdgeStyle;rounded=0;orthogonalLoop=1;jettySize=auto;html=1;exitX=0.5;exitY=1;exitDx=0;exitDy=0;entryX=0.5;entryY=0;entryDx=0;entryDy=0;" edge="1" parent="WIyWlLk6GJQsqaUBKTNV-1" source="4eXq34UIz9qXlO9hQ2Uc-52" target="4eXq34UIz9qXlO9hQ2Uc-46">
          <mxGeometry relative="1" as="geometry" />
        </mxCell>
        <mxCell id="4eXq34UIz9qXlO9hQ2Uc-52" value="中点 x 根据直线方程做加法" style="rounded=1;whiteSpace=wrap;html=1;fontSize=12;glass=0;strokeWidth=1;shadow=0;" vertex="1" parent="WIyWlLk6GJQsqaUBKTNV-1">
          <mxGeometry x="340" y="630" width="120" height="40" as="geometry" />
        </mxCell>
        <mxCell id="4eXq34UIz9qXlO9hQ2Uc-80" style="edgeStyle=orthogonalEdgeStyle;rounded=0;orthogonalLoop=1;jettySize=auto;html=1;exitX=0.5;exitY=1;exitDx=0;exitDy=0;entryX=0.5;entryY=0;entryDx=0;entryDy=0;" edge="1" parent="WIyWlLk6GJQsqaUBKTNV-1" source="4eXq34UIz9qXlO9hQ2Uc-56" target="4eXq34UIz9qXlO9hQ2Uc-64">
          <mxGeometry relative="1" as="geometry" />
        </mxCell>
        <mxCell id="4eXq34UIz9qXlO9hQ2Uc-56" value="中点 y 根据直线方程做减法" style="rounded=1;whiteSpace=wrap;html=1;fontSize=12;glass=0;strokeWidth=1;shadow=0;" vertex="1" parent="WIyWlLk6GJQsqaUBKTNV-1">
          <mxGeometry x="520" y="810" width="120" height="40" as="geometry" />
        </mxCell>
        <mxCell id="4eXq34UIz9qXlO9hQ2Uc-66" style="edgeStyle=orthogonalEdgeStyle;rounded=0;orthogonalLoop=1;jettySize=auto;html=1;exitX=0.5;exitY=1;exitDx=0;exitDy=0;" edge="1" parent="WIyWlLk6GJQsqaUBKTNV-1" source="4eXq34UIz9qXlO9hQ2Uc-57" target="4eXq34UIz9qXlO9hQ2Uc-64">
          <mxGeometry relative="1" as="geometry" />
        </mxCell>
        <mxCell id="4eXq34UIz9qXlO9hQ2Uc-57" value="中点 y 根据直线方程做加法" style="rounded=1;whiteSpace=wrap;html=1;fontSize=12;glass=0;strokeWidth=1;shadow=0;" vertex="1" parent="WIyWlLk6GJQsqaUBKTNV-1">
          <mxGeometry x="340" y="810" width="120" height="40" as="geometry" />
        </mxCell>
        <mxCell id="4eXq34UIz9qXlO9hQ2Uc-68" style="edgeStyle=orthogonalEdgeStyle;rounded=0;orthogonalLoop=1;jettySize=auto;html=1;exitX=0.5;exitY=1;exitDx=0;exitDy=0;entryX=0.5;entryY=0;entryDx=0;entryDy=0;" edge="1" parent="WIyWlLk6GJQsqaUBKTNV-1" source="4eXq34UIz9qXlO9hQ2Uc-64" target="4eXq34UIz9qXlO9hQ2Uc-67">
          <mxGeometry relative="1" as="geometry">
            <Array as="points">
              <mxPoint x="490" y="1020" />
              <mxPoint x="360" y="1020" />
            </Array>
          </mxGeometry>
        </mxCell>
        <mxCell id="4eXq34UIz9qXlO9hQ2Uc-64" value="更新家具展示中心点坐标" style="rounded=1;whiteSpace=wrap;html=1;fontSize=12;glass=0;strokeWidth=1;shadow=0;" vertex="1" parent="WIyWlLk6GJQsqaUBKTNV-1">
          <mxGeometry x="430" y="910" width="120" height="40" as="geometry" />
        </mxCell>
        <mxCell id="4eXq34UIz9qXlO9hQ2Uc-67" value="结束" style="rounded=1;whiteSpace=wrap;html=1;fontSize=12;glass=0;strokeWidth=1;shadow=0;" vertex="1" parent="WIyWlLk6GJQsqaUBKTNV-1">
          <mxGeometry x="300" y="1080" width="120" height="40" as="geometry" />
        </mxCell>
      </root>
    </mxGraphModel>
  </diagram>
</mxfile>
